<svg width="65" height="87" viewBox="0 0 65 87" fill="none" xmlns="http://www.w3.org/2000/svg">
<path d="M42.0925 45.7736L36.1973 39.7981L42.0925 45.7736ZM38.1333 34.79C38.1371 35.7092 37.9638 36.6202 37.6231 37.4709C37.2825 38.3216 36.7812 39.0954 36.148 39.748C35.5147 40.4007 34.7619 40.9194 33.9324 41.2746C33.103 41.6299 32.2132 41.8146 31.3138 41.8184C30.4144 41.8221 29.5231 41.6447 28.6907 41.2964C27.8584 40.9481 27.1012 40.4356 26.4626 39.7883C25.8239 39.1409 25.3163 38.3713 24.9686 37.5235C24.6209 36.6756 24.4399 35.7661 24.4361 34.8469C24.4284 32.9904 25.1426 31.2069 26.4215 29.8888C27.7004 28.5708 29.4393 27.826 31.2556 27.8185C33.072 27.8109 34.817 28.5412 36.1068 29.8486C37.3966 31.156 38.1256 32.9335 38.1333 34.79Z" stroke="#2D2F30" stroke-width="2" stroke-linecap="round" stroke-linejoin="round"/>
</svg>
