<svg width="139" height="38" viewBox="0 0 139 38" fill="none" xmlns="http://www.w3.org/2000/svg">
<ellipse cx="17.9765" cy="19.0861" rx="17.2788" ry="17.9875" transform="rotate(-0.238025 17.9765 19.0861)" fill="#094B72"/>
<path d="M18.8025 20.4677L23.2824 20.4491L23.2934 23.0891L15.3935 23.1219L15.3352 9.08205L18.7551 9.06785L18.8025 20.4677Z" fill="white"/>
<path d="M52.4041 21.3282L56.8841 21.3095L56.895 23.9495L48.9951 23.9823L48.9368 9.94246L52.3567 9.92825L52.4041 21.3282ZM59.323 18.3394C59.3182 17.1927 59.5274 16.1852 59.9504 15.3168C60.3868 14.4483 60.9774 13.7791 61.7221 13.3094C62.4668 12.8396 63.2992 12.6028 64.2192 12.599C65.0058 12.5957 65.6932 12.7529 66.2812 13.0704C66.8825 13.3879 67.3442 13.806 67.6664 14.3247L67.6598 12.7447L71.0798 12.7305L71.1262 23.8904L67.7062 23.9046L67.6996 22.3246C67.3684 22.846 66.9035 23.2679 66.3049 23.5904C65.7195 23.9129 65.0335 24.0757 64.2469 24.079C63.3402 24.0827 62.5126 23.8529 61.764 23.3893C61.0153 22.9124 60.4192 22.2415 59.9756 21.3767C59.5453 20.4985 59.3278 19.486 59.323 18.3394ZM67.683 18.3247C67.6795 17.4713 67.4367 16.799 66.9546 16.3077C66.4859 15.8163 65.9115 15.572 65.2316 15.5748C64.5516 15.5776 63.9726 15.8267 63.4946 16.322C63.03 16.804 62.7994 17.4716 62.803 18.3249C62.8065 19.1783 63.0427 19.8573 63.5114 20.362C63.9935 20.8533 64.5745 21.0976 65.2545 21.0948C65.9345 21.0919 66.5068 20.8429 66.9714 20.3476C67.4493 19.8523 67.6865 19.178 67.683 18.3247ZM91.0738 12.6474L88.1002 23.8199L84.3203 23.8356L82.5302 16.603L80.7403 23.8505L76.9803 23.8661L73.894 12.7188L77.314 12.7046L78.9271 20.678L80.7739 12.6902L84.3939 12.6752L86.3269 20.6072L87.8539 12.6608L91.0738 12.6474ZM97.2829 8.98161L97.3444 23.7815L93.9244 23.7957L93.8629 8.99582L97.2829 8.98161ZM102.992 11.4379C102.392 11.4404 101.898 11.2691 101.509 10.9241C101.135 10.5656 100.946 10.1264 100.944 9.6064C100.942 9.07308 101.127 8.6323 101.498 8.28409C101.884 7.92249 102.376 7.74044 102.976 7.73794C103.563 7.73551 104.044 7.91351 104.418 8.27196C104.807 8.61702 105.002 9.05621 105.004 9.58954C105.006 10.1095 104.815 10.5503 104.429 10.9119C104.058 11.2602 103.578 11.4355 102.992 11.4379ZM104.696 12.5908L104.743 23.7507L101.323 23.765L101.276 12.605L104.696 12.5908ZM119.217 17.9306C119.218 18.2506 119.2 18.584 119.161 18.9308L111.421 18.963C111.478 19.6561 111.7 20.1885 112.088 20.5602C112.489 20.9185 112.977 21.0965 113.55 21.0941C114.404 21.0906 114.995 20.7281 115.326 20.0067L118.966 19.9916C118.782 20.7257 118.445 21.3871 117.954 21.9758C117.476 22.5645 116.872 23.027 116.14 23.3634C115.408 23.6998 114.588 23.8698 113.682 23.8736C112.588 23.8782 111.614 23.6489 110.759 23.1857C109.904 22.7226 109.234 22.0587 108.751 21.1941C108.267 20.3294 108.023 19.3171 108.018 18.1571C108.013 16.9971 108.242 15.9828 108.705 15.1142C109.182 14.2456 109.846 13.5761 110.697 13.1059C111.548 12.6357 112.527 12.3983 113.634 12.3937C114.714 12.3892 115.675 12.6119 116.517 13.0617C117.359 13.5116 118.015 14.1555 118.485 14.9936C118.968 15.8316 119.212 16.8106 119.217 17.9306ZM115.713 17.0451C115.711 16.4585 115.509 15.9926 115.108 15.6476C114.706 15.3026 114.205 15.1314 113.605 15.1339C113.032 15.1362 112.546 15.3049 112.148 15.6399C111.762 15.9749 111.524 16.4492 111.433 17.0629L115.713 17.0451ZM128.753 20.751L128.765 23.6509L127.025 23.6582C125.785 23.6633 124.817 23.3673 124.121 22.7702C123.426 22.1598 123.075 21.1679 123.069 19.7946L123.051 15.3546L121.691 15.3603L121.679 12.5203L123.039 12.5146L123.028 9.79466L126.448 9.78046L126.459 12.5004L128.699 12.4911L128.711 15.3311L126.471 15.3404L126.489 19.8204C126.491 20.1537 126.572 20.3934 126.732 20.5394C126.893 20.6854 127.16 20.7576 127.533 20.756L128.753 20.751Z" fill="#2D2F30"/>
</svg>
